<?xml version="1.0" encoding="utf-8"?>
<!-- Generator: Adobe Illustrator 19.0.0, SVG Export Plug-In . SVG Version: 6.00 Build 0)  -->
<svg version="1.1" id="Capa_1" xmlns="http://www.w3.org/2000/svg" xmlns:xlink="http://www.w3.org/1999/xlink" x="0px" y="0px"
	 viewBox="0 0 500 147.9" style="enable-background:new 0 0 500 147.9;" xml:space="preserve">
<style type="text/css">
	.st0{fill:#222222;}
	.st1{fill:#ED2BA2;}
	.st2{fill:#C30D82;}
	.st3{fill:#8C0D82;}
	.st4{fill:#AA0FBA;}
</style>
<g id="XMLID_1_">
	<g id="XMLID_225_">
		<path id="XMLID_239_" class="st0" d="M205.4,99.8l-17.4-29h-6.5v29h-14.9V25.3h28.4c8.7,0,15.2,2.1,19.8,6.3
			c4.5,4.2,6.8,9.8,6.8,16.7c0,5.6-1.6,10.3-4.7,14.1c-3.1,3.8-7.7,6.3-13.6,7.6l18.6,29.8H205.4z M181.4,60.5h12.2
			c8.5,0,12.8-3.8,12.8-11.3c0-3.6-1-6.4-3.1-8.4c-2.1-2-5.3-3-9.7-3h-12.2V60.5z"/>
		<path id="XMLID_236_" class="st0" d="M263.1,44.1c3.5,2.3,6,5.5,7.5,9.4V41.3h14.8v58.5h-14.8V87.6c-1.5,3.9-4,7.1-7.5,9.4
			c-3.5,2.4-7.7,3.5-12.7,3.5c-4.9,0-9.4-1.2-13.3-3.6c-3.9-2.4-7-5.9-9.2-10.4c-2.2-4.5-3.3-9.9-3.3-16c0-6.1,1.1-11.4,3.3-16
			c2.2-4.5,5.3-8,9.2-10.4c3.9-2.4,8.4-3.6,13.3-3.6C255.4,40.6,259.6,41.8,263.1,44.1z M243.9,58.1c-2.8,3-4.2,7.2-4.2,12.5
			c0,5.3,1.4,9.4,4.2,12.4c2.8,3,6.5,4.5,11.2,4.5c4.5,0,8.2-1.5,11.1-4.6c2.9-3.1,4.4-7.2,4.4-12.3c0-5.2-1.5-9.3-4.4-12.4
			c-2.9-3.1-6.6-4.6-11.1-4.6C250.4,53.6,246.7,55.1,243.9,58.1z"/>
		<path id="XMLID_234_" class="st0" d="M315.4,33.1c-1.8,1.5-2.6,4.3-2.6,8.1v0.1h11.8v12.6h-11.8v45.9h-14.9V53.9h-7.5V41.3h7.5V40
			c0-7,2-12.3,6-16.1c4-3.8,9.9-5.6,17.7-5.6c1.3,0,2.4,0,3.1,0.1v12.9C320.2,30.9,317.2,31.6,315.4,33.1z"/>
		<path id="XMLID_232_" class="st0" d="M350,33.1c-1.8,1.5-2.6,4.3-2.6,8.1v0.1h11.8v12.6h-11.8v45.9h-14.9V53.9h-9.6V41.3h9.6V40
			c0-7,2-12.3,6-16.1c4-3.8,9.9-5.6,17.7-5.6c1.3,0,2.4,0,3.1,0.1v12.9C354.9,30.9,351.8,31.6,350,33.1z"/>
		<path id="XMLID_230_" class="st0" d="M379.8,21.7v78.1h-14.9V21.7H379.8z"/>
		<path id="XMLID_228_" class="st0" d="M400.2,41.3L416.1,81l14.8-39.7h16.4l-40.8,97.5h-16.5l18.2-40.7l-24.6-56.8H400.2z"/>
		<path id="XMLID_226_" class="st0" d="M488.3,46c4.3,3.6,7,8.4,8,14.3h-13.9c-0.6-2.8-1.8-5.1-3.8-6.8c-2-1.7-4.5-2.5-7.7-2.5
			c-2.5,0-4.5,0.6-5.9,1.8c-1.4,1.2-2.1,2.8-2.1,4.9c0,1.6,0.6,2.9,1.7,3.9c1.1,1,2.5,1.8,4.2,2.3c1.7,0.6,4.1,1.2,7.3,2
			c4.4,1,8,2,10.8,3.1c2.8,1.1,5.2,2.8,7.2,5.2c2,2.4,3,5.5,3,9.5c0,5-2,9-5.9,12.1c-3.9,3.1-9.2,4.6-15.8,4.6
			c-7.6,0-13.7-1.7-18.3-5.1c-4.6-3.4-7.4-8.3-8.3-14.6H463c0.4,2.9,1.6,5.2,3.8,6.8c2.2,1.7,5,2.5,8.5,2.5c2.5,0,4.5-0.6,5.8-1.8
			c1.3-1.2,2-2.8,2-4.8c0-1.7-0.6-3.1-1.7-4.1c-1.2-1.1-2.6-1.9-4.3-2.4c-1.7-0.6-4.2-1.2-7.3-2c-4.4-1-7.9-2-10.6-3
			c-2.7-1-5-2.7-7-4.9c-1.9-2.3-2.9-5.3-2.9-9.3c0-5.1,1.9-9.2,5.8-12.3c3.9-3.2,9.2-4.7,16-4.7C478.3,40.6,484,42.4,488.3,46z"/>
	</g>
	<g id="XMLID_220_">
		<path id="XMLID_224_" class="st1" d="M78.4,70.7l33.5,33.5l27-27c3.9-3.9,4.1-10.1,0.2-13.9l-26.7-26.7L78.4,70.7z"/>
		<path id="XMLID_223_" class="st2" d="M72.2,77l-33.5,33.5l26.7,26.7c3.9,3.9,10.2,3.5,14.1-0.4l26.3-26.3L72.2,77z"/>
		<path id="XMLID_222_" class="st3" d="M38.7,77.2l3.3-6.8l-3.3-7.2h19.9L32.4,37.1L6.1,63.4c-3.9,3.9-4.3,10.3-0.4,14.2l26.6,26.5
			L59,77.2H38.7z"/>
		<path id="XMLID_221_" class="st4" d="M65.6,3.9l-27.3,27L65,57.8v-21l7,3.3l7-3.3V57l27-26.7L79.5,3.7C75.6-0.2,69.5,0,65.6,3.9z"
			/>
	</g>
	<g id="XMLID_184_">
		<g id="XMLID_214_">
			<path id="XMLID_217_" class="st0" d="M176.7,125.8c0.8,0.5,1.4,1.1,1.8,2c0.4,0.9,0.7,1.9,0.7,3s-0.2,2.2-0.7,3
				c-0.4,0.9-1,1.5-1.8,2s-1.6,0.7-2.6,0.7c-1.1,0-2-0.3-2.7-0.8c-0.7-0.5-1.3-1.3-1.5-2.1v2.8H168v-14.9h1.8v6.7
				c0.3-0.9,0.8-1.6,1.5-2.1c0.7-0.5,1.7-0.8,2.7-0.8C175.1,125.1,175.9,125.4,176.7,125.8z M171.6,127.2c-0.6,0.3-1,0.8-1.3,1.4
				c-0.3,0.6-0.5,1.3-0.5,2.1c0,0.8,0.2,1.5,0.5,2.1c0.3,0.6,0.8,1.1,1.3,1.4c0.6,0.3,1.2,0.5,1.9,0.5c1.1,0,2-0.4,2.7-1.1
				c0.7-0.7,1-1.7,1-3c0-1.3-0.3-2.2-1-3c-0.7-0.7-1.6-1.1-2.7-1.1C172.9,126.8,172.2,126.9,171.6,127.2z"/>
			<path id="XMLID_215_" class="st0" d="M181.7,125.3l3.6,8.7l3.3-8.7h2l-6.6,16.3H182l2.3-5.4l-4.6-10.9H181.7z"/>
		</g>
		<g id="XMLID_185_">
			<g id="XMLID_196_">
				<path id="XMLID_212_" class="st0" d="M280,135.7c-0.6,1-1.4,1.8-2.6,2.3c-1.1,0.6-2.5,0.9-4.2,0.9c-1.6,0-3-0.3-4.3-0.8
					c-1.3-0.5-2.3-1.3-3-2.4c-0.8-1-1.2-2.2-1.3-3.6h4.8c0.1,0.9,0.5,1.7,1.1,2.3c0.6,0.6,1.5,0.9,2.5,0.9c0.9,0,1.7-0.3,2.2-0.8
					c0.5-0.5,0.8-1.2,0.8-1.9c0-0.7-0.2-1.3-0.6-1.8c-0.4-0.5-0.9-0.8-1.5-1.1c-0.6-0.3-1.5-0.6-2.6-1c-1.4-0.5-2.6-0.9-3.5-1.4
					c-0.9-0.5-1.7-1.1-2.3-2c-0.6-0.9-0.9-2-0.9-3.4c0-2,0.7-3.5,2.1-4.6c1.4-1.1,3.3-1.7,5.6-1.7c2.4,0,4.3,0.6,5.7,1.7
					c1.4,1.2,2.2,2.7,2.4,4.6h-4.9c-0.1-0.8-0.5-1.5-1-2c-0.6-0.5-1.3-0.8-2.3-0.8c-0.8,0-1.5,0.2-2,0.7c-0.5,0.4-0.8,1.1-0.8,1.9
					c0,0.7,0.2,1.2,0.6,1.7c0.4,0.4,0.9,0.8,1.5,1.1c0.6,0.3,1.4,0.6,2.5,0.9c1.5,0.5,2.6,1,3.6,1.4c0.9,0.5,1.7,1.1,2.3,2
					c0.6,0.9,1,2.1,1,3.5C280.9,133.6,280.6,134.7,280,135.7z"/>
				<path id="XMLID_209_" class="st0" d="M296.2,121.7c1.4,0.7,2.5,1.8,3.3,3.2c0.8,1.4,1.2,3,1.2,4.9c0,1.9-0.4,3.5-1.2,4.9
					c-0.8,1.4-1.9,2.4-3.3,3.2c-1.4,0.7-2.9,1.1-4.7,1.1s-3.3-0.4-4.7-1.1c-1.4-0.7-2.5-1.8-3.3-3.2c-0.8-1.4-1.2-3-1.2-4.9
					c0-1.9,0.4-3.5,1.2-4.9c0.8-1.4,1.9-2.4,3.3-3.2c1.4-0.7,2.9-1.1,4.7-1.1S294.8,121,296.2,121.7z M288.3,125.9
					c-0.9,0.9-1.3,2.2-1.3,3.9c0,1.7,0.4,3,1.3,3.9c0.9,0.9,2,1.3,3.2,1.3c1.3,0,2.3-0.4,3.2-1.3c0.9-0.9,1.3-2.2,1.3-3.9
					c0-1.7-0.4-3-1.3-3.9c-0.9-0.9-2-1.3-3.2-1.3C290.2,124.5,289.2,125,288.3,125.9z"/>
				<path id="XMLID_207_" class="st0" d="M310.1,121.6c1.1-0.7,2.3-1,3.7-1v4.9h-1.3c-3.3,0-5,1.5-5,4.6v8.6h-4.5v-17.8h4.5v3.4
					C308.1,123.1,309,122.2,310.1,121.6z"/>
				<path id="XMLID_205_" class="st0" d="M324.8,134.8v3.9h-2.4c-2,0-3.5-0.5-4.6-1.4c-1.1-1-1.6-2.6-1.6-4.8v-7.7h-2.5v-3.8h2.5
					v-4.4h4.5v4.4h4v3.8h-4v7.8c0,0.9,0.2,1.5,0.5,1.8c0.3,0.3,0.9,0.5,1.7,0.5H324.8z"/>
				<path id="XMLID_202_" class="st0" d="M343.7,130.6h-13.1c0.1,1.6,0.5,2.8,1.3,3.5c0.8,0.8,1.8,1.1,3,1.1c1.1,0,1.9-0.3,2.6-0.8
					c0.7-0.5,1.1-1.2,1.3-2.1h4.8c-0.2,1.2-0.7,2.4-1.5,3.3c-0.8,1-1.8,1.8-3,2.3c-1.2,0.6-2.6,0.8-4,0.8c-1.7,0-3.3-0.4-4.6-1.1
					c-1.4-0.7-2.4-1.8-3.2-3.2c-0.8-1.4-1.1-3-1.1-4.9c0-1.9,0.4-3.5,1.1-4.9c0.8-1.4,1.8-2.4,3.2-3.2c1.4-0.7,2.9-1.1,4.6-1.1
					c1.8,0,3.3,0.4,4.6,1.1c1.3,0.7,2.3,1.7,3.1,3c0.7,1.3,1.1,2.7,1.1,4.4C343.9,129.5,343.8,130,343.7,130.6z M338.2,125.3
					c-0.8-0.8-1.8-1.1-3-1.1c-1.2,0-2.3,0.4-3.1,1.1c-0.8,0.8-1.3,1.9-1.4,3.3h8.7C339.4,127.2,339,126.1,338.2,125.3z"/>
				<path id="XMLID_199_" class="st0" d="M359,121.7c1.4,0.7,2.5,1.8,3.3,3.2c0.8,1.4,1.2,3,1.2,4.9c0,1.9-0.4,3.5-1.2,4.9
					c-0.8,1.4-1.9,2.4-3.3,3.2c-1.4,0.7-2.9,1.1-4.7,1.1s-3.3-0.4-4.7-1.1c-1.4-0.7-2.5-1.8-3.3-3.2c-0.8-1.4-1.2-3-1.2-4.9
					c0-1.9,0.4-3.5,1.2-4.9c0.8-1.4,1.9-2.4,3.3-3.2c1.4-0.7,2.9-1.1,4.7-1.1S357.7,121,359,121.7z M351.1,125.9
					c-0.9,0.9-1.3,2.2-1.3,3.9c0,1.7,0.4,3,1.3,3.9c0.9,0.9,2,1.3,3.2,1.3c1.3,0,2.3-0.4,3.2-1.3c0.9-0.9,1.3-2.2,1.3-3.9
					c0-1.7-0.4-3-1.3-3.9c-0.9-0.9-2-1.3-3.2-1.3C353.1,124.5,352,125,351.1,125.9z"/>
				<path id="XMLID_197_" class="st0" d="M377.1,122.2c1.3,1.1,2.1,2.6,2.4,4.4h-4.2c-0.2-0.9-0.6-1.5-1.2-2.1
					c-0.6-0.5-1.4-0.8-2.3-0.8c-0.8,0-1.4,0.2-1.8,0.5c-0.4,0.4-0.6,0.9-0.6,1.5c0,0.5,0.2,0.9,0.5,1.2c0.3,0.3,0.8,0.5,1.3,0.7
					c0.5,0.2,1.3,0.4,2.2,0.6c1.4,0.3,2.5,0.6,3.3,0.9c0.8,0.3,1.6,0.9,2.2,1.6c0.6,0.7,0.9,1.7,0.9,2.9c0,1.5-0.6,2.8-1.8,3.7
					c-1.2,0.9-2.8,1.4-4.8,1.4c-2.3,0-4.2-0.5-5.6-1.6c-1.4-1-2.2-2.5-2.5-4.5h4.3c0.1,0.9,0.5,1.6,1.2,2.1c0.7,0.5,1.5,0.8,2.6,0.8
					c0.8,0,1.4-0.2,1.8-0.6c0.4-0.4,0.6-0.9,0.6-1.5c0-0.5-0.2-0.9-0.5-1.3c-0.4-0.3-0.8-0.6-1.3-0.7c-0.5-0.2-1.3-0.4-2.2-0.6
					c-1.3-0.3-2.4-0.6-3.2-0.9c-0.8-0.3-1.5-0.8-2.1-1.5c-0.6-0.7-0.9-1.6-0.9-2.8c0-1.5,0.6-2.8,1.8-3.8c1.2-1,2.8-1.4,4.9-1.4
					C374.1,120.6,375.8,121.2,377.1,122.2z"/>
			</g>
			<g id="XMLID_186_">
				<path id="XMLID_193_" class="st0" d="M216.8,133.4h-10l-1.9,5.2h-3.2l8.4-22.3h3.3l8.4,22.3h-3.2L216.8,133.4z M216,131.1
					l-4.2-11.5l-4.2,11.5H216z"/>
				<path id="XMLID_190_" class="st0" d="M237.8,121.9c1.2,0.7,2.2,1.8,2.9,3.2c0.7,1.4,1,3,1,4.8c0,1.8-0.3,3.4-1,4.8
					c-0.7,1.4-1.7,2.4-2.9,3.1c-1.2,0.7-2.6,1.1-4.2,1.1c-1.7,0-3.2-0.4-4.4-1.3c-1.2-0.9-2-2-2.5-3.4V147h-2.9v-26h2.9v4.5
					c0.5-1.4,1.3-2.6,2.5-3.4c1.2-0.9,2.6-1.3,4.4-1.3C235.2,120.8,236.6,121.1,237.8,121.9z M229.7,124.2c-0.9,0.5-1.6,1.3-2.2,2.3
					c-0.5,1-0.8,2.1-0.8,3.4c0,1.3,0.3,2.4,0.8,3.4c0.5,1,1.2,1.7,2.2,2.3c0.9,0.5,2,0.8,3.1,0.8c1.8,0,3.3-0.6,4.4-1.7
					c1.1-1.1,1.6-2.7,1.6-4.7c0-2-0.5-3.6-1.6-4.7c-1.1-1.1-2.5-1.7-4.4-1.7C231.6,123.4,230.6,123.6,229.7,124.2z"/>
				<path id="XMLID_187_" class="st0" d="M258.5,121.9c1.2,0.7,2.2,1.8,2.9,3.2c0.7,1.4,1,3,1,4.8c0,1.8-0.3,3.4-1,4.8
					c-0.7,1.4-1.7,2.4-2.9,3.1c-1.2,0.7-2.6,1.1-4.2,1.1c-1.7,0-3.2-0.4-4.4-1.3c-1.2-0.9-2-2-2.5-3.4V147h-2.9v-26h2.9v4.5
					c0.5-1.4,1.3-2.6,2.5-3.4c1.2-0.9,2.6-1.3,4.4-1.3C255.9,120.8,257.3,121.1,258.5,121.9z M250.4,124.2c-0.9,0.5-1.6,1.3-2.2,2.3
					c-0.5,1-0.8,2.1-0.8,3.4c0,1.3,0.3,2.4,0.8,3.4c0.5,1,1.2,1.7,2.2,2.3c0.9,0.5,2,0.8,3.1,0.8c1.8,0,3.3-0.6,4.4-1.7
					c1.1-1.1,1.6-2.7,1.6-4.7c0-2-0.5-3.6-1.6-4.7c-1.1-1.1-2.5-1.7-4.4-1.7C252.3,123.4,251.3,123.6,250.4,124.2z"/>
			</g>
		</g>
	</g>
</g>
</svg>
